<svg id="Group_176" data-name="Group 176" xmlns="http://www.w3.org/2000/svg" xmlns:xlink="http://www.w3.org/1999/xlink" width="505.101" height="434" viewBox="0 0 505.101 434">
  <defs>
    <clipPath id="clip-path">
      <rect id="Rectangle_115" data-name="Rectangle 115" width="505.1" height="434" fill="none"/>
    </clipPath>
    <clipPath id="clip-path-2">
      <path id="Path_136" data-name="Path 136" d="M548.129,289.656l-16.536.125-8.116.073a13.228,13.228,0,0,0-5.439.387c-1.606.867-1.412,3.3-1.559,4.844-.253,2.556-.424,5.112-.494,7.668a106.605,106.605,0,0,0,.657,15.26c.335,2.822.771,5.663,1.329,8.465.28,1.381.58,2.741.9,4.061a21.3,21.3,0,0,1,1.081,4.245,3.632,3.632,0,0,0,1.19,2.033,3.84,3.84,0,0,0,2.392.455l22.321-.47a116.456,116.456,0,0,0,4.057-45.7,1.76,1.76,0,0,0-.381-1.1,1.849,1.849,0,0,0-1.112-.373,1.886,1.886,0,0,0-.287.022" transform="translate(-515.94 -289.634)" fill="none"/>
    </clipPath>
    <linearGradient id="linear-gradient" x1="-5.755" y1="7.511" x2="-5.743" y2="7.511" gradientUnits="objectBoundingBox">
      <stop offset="0" stop-color="#2d5481"/>
      <stop offset="0.9" stop-color="#3e66a8"/>
      <stop offset="1" stop-color="#4169ad"/>
    </linearGradient>
    <clipPath id="clip-path-4">
      <path id="Path_139" data-name="Path 139" d="M646.442,567.41c-9.739-.034-52.987-2.885-52.987-2.885,4.45,32.885,6.794,64.283,4.969,92.764,0,0,49.439,8.128,67.1,6.425s49.5-9.545,49.5-9.545l-3-94.137s-55.845,7.412-65.584,7.378" transform="translate(-593.455 -560.032)" fill="none"/>
    </clipPath>
    <linearGradient id="linear-gradient-2" x1="-3.138" y1="1.118" x2="-3.133" y2="1.118" xlink:href="#linear-gradient"/>
  </defs>
  <g id="Group_149" data-name="Group 149">
    <g id="Group_148" data-name="Group 148" clip-path="url(#clip-path)">
      <path id="Path_102" data-name="Path 102" d="M17.317,705.04C9.2,706.7-.944,710.964.07,718.533c.812,5.782,7.933,8.7,14.061,10.307,27.391,7.122,56,9.15,84.406,10.875,131.6,8.015,265.252,10.409,393.83-16.354,4.849-1.014,10.388-2.6,12.174-6.817s-.953-8.542-4.829-10.9a32.691,32.691,0,0,0-13.249-3.53c-15.745-1.766-31.47-3.551-47.235-5.032s-31.652-2.78-47.52-3.875-31.835-2.029-47.763-2.678-31.774-1.2-47.682-1.5-31.794-.386-47.7-.3a72.2,72.2,0,0,1-15.238-1.623,93.344,93.344,0,0,0-17.977-1.319q-23.557-.142-47.114.832t-46.83,3.1q-23.434,2.131-46.667,5.438t-46.181,7.67c-3.774.71-7.487,1.562-11.241,2.211" transform="translate(0 -311.132)" fill="#ebebeb"/>
      <path id="Path_103" data-name="Path 103" d="M194.434,247.306c-.446,1.319,20.29,41.96,19.864,69.778s-4.849,45.064-3.53,43.279,26.6-10.592,26.6-46.363-10.145-56.548-18.261-60.059-24.673-6.635-24.673-6.635" transform="translate(-88.212 -112.204)" fill="gray"/>
      <path id="Path_104" data-name="Path 104" d="M238.9,532.68s.386-31.368,34.006-33.134,50.725-2.638,53,11.484,13.7,24.348-7.061,23.415S238.9,532.68,238.9,532.68" transform="translate(-108.389 -226.207)" fill="gray"/>
      <path id="Path_105" data-name="Path 105" d="M394.377,691.967a7.954,7.954,0,1,1-7.953,7.954,7.954,7.954,0,0,1,7.953-7.954" transform="translate(-175.322 -313.948)" fill="gray"/>
      <path id="Path_106" data-name="Path 106" d="M307.381,689.553a7.609,7.609,0,1,1-7.609,7.609,7.609,7.609,0,0,1,7.609-7.609" transform="translate(-136.008 -312.853)" fill="gray"/>
      <path id="Path_107" data-name="Path 107" d="M230.156,693.787a8.6,8.6,0,1,1-8.6,8.6,8.6,8.6,0,0,1,8.6-8.6" transform="translate(-100.52 -314.774)" fill="gray"/>
      <path id="Path_108" data-name="Path 108" d="M183.357,242.2c11.565,23.76,21.284,49.061,21.934,75.783a151.08,151.08,0,0,1-4.3,38.146c-1.624,6.939-3.612,13.8-5.844,20.574a94.44,94.44,0,0,0-5.052,19.073,21.223,21.223,0,0,0,4.991,17.1c4.788,5.093,11.991,6.391,18.667,6.757,16.009.913,32.18.385,48.209.223,8.38,0,16.78-.264,25.16-.467,3.936,0,7.893,0,11.809-.345a10.589,10.589,0,0,0,8.928-5.113c3.612-5.966,3-13.635,0-19.722A30.6,30.6,0,0,0,292.984,380.4c-15.177-7.02-33.763-7.223-49.812-3.469-15.38,3.612-31.186,12.6-34.209,29.481a4.808,4.808,0,0,0,3.267,5.742,4.687,4.687,0,0,0,5.722-3.266,25.157,25.157,0,0,1,8.339-14.853,42.61,42.61,0,0,1,17.49-7.872,74.725,74.725,0,0,1,40.033.994c5.337,1.725,10.876,4.565,13.939,9.475a15.305,15.305,0,0,1,2.415,6.493c.162,1.441.182,4.727-1.1,5.783-.487.386-2.313.142-2.962.162l-5.032.142q-6.088.183-12.174.3-11.566.243-23.151.406c-7.386,0-14.751.162-22.136.182s-14.447.406-21.609,0c-4.606-.284-10.023-1.5-12.032-6.188-1.846-4.322-.629-9.638.547-13.96,1.7-6.29,4.058-12.4,5.9-18.667s3.47-12.7,4.748-19.154a154.573,154.573,0,0,0,3.144-34.838c-.872-28.163-11.1-54.56-23.435-79.557-2.536-5.134-10.145-.629-7.69,4.5Z" transform="translate(-82.898 -106.835)" fill="#333"/>
      <path id="Path_109" data-name="Path 109" d="M191.917,245.715c7.974,2.273,16.13,5.377,22.542,10.794s10.145,13.371,12.032,21.65c4.058,17.469,4.991,37.8-2.942,54.337a52.581,52.581,0,0,1-7.3,11.545,85.156,85.156,0,0,1-10.49,9.577c-3.956,3.348,1.076,8.846,5.235,6.8,8.116-4.058,14.893-12.539,19.235-20.392a72.409,72.409,0,0,0,8.3-29.2,113.624,113.624,0,0,0-2.516-32.707c-2.029-9.516-5.722-18.971-12.945-25.749-8.116-7.527-18.748-10.936-29.238-13.574a3.591,3.591,0,0,0-1.907,6.919Z" transform="translate(-85.939 -108.3)" fill="#333"/>
      <path id="Path_110" data-name="Path 110" d="M275.5,562.818c-.588,27.31-.893,23.155-1.217,50.465l3.49-4.565c-11.119,1.522-22.319,3.023-33.316,4.748-4.788.751-9.11,2.415-10.45,7.568-.953,3.754.771,7.73-.3,11.383-1.745,5.884,7.589,8.461,9.191,2.536.994-3.612.142-6.959,0-10.591a3.2,3.2,0,0,1,.2-1.684c-.528,1.014-.244.284.568.3a44.664,44.664,0,0,0,7.142-.933c9.821-1.36,19.6-2.739,29.4-4.18a4.789,4.789,0,0,0,3.49-4.586c-.142-27.31-.244-23.155-.67-50.465a3.814,3.814,0,0,0-7.608,0Z" transform="translate(-105.934 -253.748)" fill="#333"/>
      <path id="Path_111" data-name="Path 111" d="M312.915,656.6a367.373,367.373,0,0,1,41.716,7.731l-3.652-4.789a49.7,49.7,0,0,0,4.87,17.186,4.991,4.991,0,0,0,5.559,2.252,8.475,8.475,0,0,0,1.177-.487,5.032,5.032,0,0,0,2.191-5.559c-.65-2.455-1.725-4.809-2.415-7.264s-1.177-4.951-1.684-7.447a4.91,4.91,0,0,0-3.47-3.469c-14.345-2.617-28.629-5.154-43.116-6.817-4.89-.548-6.087,7.994-1.156,8.664Z" transform="translate(-140.548 -293.959)" fill="#333"/>
      <path id="Path_112" data-name="Path 112" d="M307.349,657.519l.588,7.609.3,3.9a42.836,42.836,0,0,0,.365,4.565,5.275,5.275,0,0,0,6.048,4.369q.173-.028.344-.067a4.75,4.75,0,0,0,2.983-6.818,4.322,4.322,0,0,0-5.783-1.664,3.773,3.773,0,0,0-1.725,4.24,3.57,3.57,0,0,0,2.536,2.536l-1.6-.933-.954-1.644V671.58a3.329,3.329,0,0,1,2.618-2.536h2.252l2.029,1.136,1.177,2.029a6.568,6.568,0,0,0-.792-1.765l.487,1.156a3.258,3.258,0,0,1-.2-.73l.182,1.278c-.588-4.849-.913-9.739-1.359-14.609a4.972,4.972,0,0,0-1.38-3.327,4.687,4.687,0,0,0-7.994,3.327Z" transform="translate(-139.446 -296.199)" fill="#333"/>
      <path id="Path_113" data-name="Path 113" d="M230.089,690.18a10.145,10.145,0,0,0-12.174,6.736c-1.826,4.444-1.623,10.592,2.212,13.959a14.974,14.974,0,0,0,13.8,2.516,11.526,11.526,0,0,0,8.562-11.424,10.144,10.144,0,0,0-2.6-8.481,8.5,8.5,0,0,0-4.22-2.029,7.621,7.621,0,0,0-3.1,0c.629-.162-2.211.791-.649.345a4.062,4.062,0,0,0-1.34.67,2.983,2.983,0,0,0-.609,4.606l.284.264c-.609-.548,1.461,1.116.67.487l.345.284a4.057,4.057,0,0,0,.832.508c.528.243,1.136.426,1.643.71-.913-.548-.527-.244-.3-.122l.3.183c.284.162.163,0-.345-.325a2.749,2.749,0,0,0,.345.345c-.527-.284-.446-.71-.223-.284s-.142-.284-.122-.345a3.641,3.641,0,0,1,.182.629l.122.507c.122.588,0-1.177,0-.244v2.536a2.031,2.031,0,0,0,0,.609c-.1-.771.122-.71,0-.284a5.793,5.793,0,0,1-.142.568c0,.142-.386,1.055,0,.244s-.182.263-.284.446c-.386.689.609-.67.244-.284l-.284.325c-.386.386-1.1.71,0,0l-1.725.994c1.116-.65.426-.183,0,0a6.277,6.277,0,0,1-1.014.264,1.754,1.754,0,0,1-.548.1s1.2-.1.467,0H227.9c1.075,0,.751.122.405,0l-1.2-.264-.507-.182-.386-.142c.568.264.71.3.426.162a8.879,8.879,0,0,1-1.035-.629c-.345-.244.284,0,.243.182l-.385-.365c-.325-.3,0-.345.142.223a2.858,2.858,0,0,0-.284-.466,4.869,4.869,0,0,1-.244-.467c.223.589.264.649.1.244v-.264a11.37,11.37,0,0,1-.284-1.2v.244a4.937,4.937,0,0,1,0-.568V700.02a9.545,9.545,0,0,0,.264-1.217.631.631,0,0,1,.142-.467v-.223c.121-.366,0-.3-.1.182a2.771,2.771,0,0,1,.223-.426l.122-.223c.2-.3.162-.264-.142.121a2.963,2.963,0,0,1,.832-.831s-.73.426-.122.142c0,0,.67-.345.284-.183s.446-.121.426-.121.893-.122.446,0,.467,0,.446,0h.751l1.684.1a3.348,3.348,0,0,0,3.328-3.328,3.45,3.45,0,0,0-3.328-3.327Z" transform="translate(-98.363 -312.994)" fill="#333"/>
      <path id="Path_114" data-name="Path 114" d="M308.322,685.065c-4.687-1.867-9.07,1.116-11.951,4.606a14.483,14.483,0,0,0-3.754,6.087A8.989,8.989,0,0,0,295.276,704a14.2,14.2,0,0,0,13.737,3.794,12.539,12.539,0,0,0,8.866-9.455,11.846,11.846,0,0,0-1.319-7.974,8.6,8.6,0,0,0-7.081-4.647,3.836,3.836,0,0,0-3.449,2.334,3.9,3.9,0,0,0,.771,4.058c.406.487.852.933,1.278,1.379s-.507-.751-.264-.325l.264.365c.183.284.365.568.528.872a3.858,3.858,0,0,0,.2.406s-.385-1.055-.2-.426a6.088,6.088,0,0,1,.244.872c.162.629,0-.446,0-.548a2.667,2.667,0,0,0,0,.568,5.841,5.841,0,0,1,0,1.035l.182-1.237a7.1,7.1,0,0,1-.264,1.136c-.162.528-.446.609.142-.263-.1.142-.162.345-.264.507s-.406.67-.609.994.771-.913.244-.325l-.487.507-.426.386c-.426.386.974-.65.325-.244l-1.015.609c-.751.426,1.116-.365.284-.122l-.568.182a11.39,11.39,0,0,1-1.4.284l1.278-.162a10.156,10.156,0,0,1-2.354,0l1.258.162a11.418,11.418,0,0,1-1.4-.284l-.629-.182c-.182,0-.913-.365-.182,0s0,0-.163-.1l-.669-.386-.548-.385c-.446-.284.751.71.2.142l-.467-.467c-.527-.588,0,0,.142.2a5.878,5.878,0,0,0-.385-.69c.182.244.385.933.162.223s0,1.014,0,.223v-.264h0v-.264a2.42,2.42,0,0,1,.264-.791c.223-.69-.264.507,0,0s.2-.426.3-.629.446-.811.689-1.217l.467-.69s.507-.73.2-.3.162-.2.223-.284l.467-.508.507-.487c.609-.588-.547.324.142-.122l.568-.345c.325-.182.467-.223,0,0l.934-.406h-.182a4.655,4.655,0,0,0,.507-.142c.73-.244-.568,0,.2,0s-.447-.142.243,0a2.962,2.962,0,0,0,3.612-2.029,3.023,3.023,0,0,0-2.029-3.591Z" transform="translate(-132.688 -310.556)" fill="#333"/>
      <path id="Path_115" data-name="Path 115" d="M390.024,688.318a14.875,14.875,0,0,0-5.8,1.765,13.8,13.8,0,0,0-4.464,4.464,10.143,10.143,0,0,0-1.4,7.67,11.32,11.32,0,0,0,4.89,6.087,15.377,15.377,0,0,0,7.122,2.354,12.96,12.96,0,0,0,7.345-1.461,11.788,11.788,0,0,0,6.087-11.1,10.329,10.329,0,0,0-4.281-7.791,8.766,8.766,0,0,0-8.745-1.218,3.348,3.348,0,0,0-1.177,4.485,4.472,4.472,0,0,0,.913,1.2l.751.589-.406-.3a2.33,2.33,0,0,0,.345.284,12.287,12.287,0,0,0,.994.792l-.284-.223c.528.406,1.035.771,1.583,1.116l.406.264c.446.263-.69-.609-.325-.264a6.827,6.827,0,0,1,.669.669c.2.244.508.629,0,0s-.162-.223,0,0a4.649,4.649,0,0,1,.406.771l-.467-1.116a6.328,6.328,0,0,1,.406,1.5l-.162-1.258a7.4,7.4,0,0,1,0,1.765l.162-1.258a7.03,7.03,0,0,1-.528,1.907l.487-1.136a8.872,8.872,0,0,1-1.116,1.887l.751-.974a7.39,7.39,0,0,1-1.258,1.258l.974-.751a8.312,8.312,0,0,1-1.6.893l1.157-.487a9.83,9.83,0,0,1-2.516.69l1.278-.162a11.615,11.615,0,0,1-2.658,0l1.237.162a14.934,14.934,0,0,1-2.617-.65c-.852-.284,1.014.467.2,0l-.67-.325-1.035-.588c-.386-.264-.528-.629.122,0l-.528-.487c-.1-.122-.588-.65-.122-.1s0,0,0-.162c-.446-.588.2.832,0,.142a3.8,3.8,0,0,1,0-.386v-.3a11.512,11.512,0,0,1,.284-1.2l.182-.528c0-.243,0-.142-.121.324a2.053,2.053,0,0,1,.142-.3,8.961,8.961,0,0,1,.609-1.055c.122-.182.385-.791,0,0a1.867,1.867,0,0,1,.365-.426c.264-.3.568-.588.852-.872l.487-.446s.547-.406.223-.2.2-.122.264-.162.69-.345.182-.143a9.646,9.646,0,0,1,1.3-.405,2.5,2.5,0,0,0-.669-4.89Z" transform="translate(-171.557 -312.247)" fill="#333"/>
      <path id="Path_116" data-name="Path 116" d="M388.985,310.361c-11.57-8.327-22.415-16.852-22.523-16.937a3.384,3.384,0,0,1,4.185-5.318c.1.082,10.462,8.224,21.673,16.317,18.42,13.3,24.126,15.656,25.7,16.061,3.361-3.281,12.05-25.021,20.866-56.126A3.384,3.384,0,0,1,445.4,266.2c-.042.146-4.188,14.742-9.148,29.236C426.4,324.235,422.325,326.97,419,327.3a7.4,7.4,0,0,1-.781.048c-2.328,0-7.7-1.491-29.233-16.989m28.709,10.394h0" transform="translate(-165.679 -118.824)" fill="#333"/>
      <path id="Path_117" data-name="Path 117" d="M285.64,360.344c-5.187,17.334-15.286,43.13-16.378,61.283,25.114,3,51.456-3.412,76.57-.409-3.549-37.534-2.184-86.533,3-123.931a30.277,30.277,0,0,1-5.187,5.05c-1.911.273-3.139.682-5.05.819-3.822.409-8.6,2.73-12.421,2.593-7.507-.273-17.607-3.685-24.841-6.005-3.549-1.092-4.641-5.05-8.19-6.279-4.368-1.365-2.32,1.911-2.047,4.368a123.2,123.2,0,0,1,.409,24.567c-.819,9.145-3.139,29.209-5.869,37.944" transform="translate(-122.165 -133.001)" fill="#733e90"/>
      <path id="Path_118" data-name="Path 118" d="M291.638,288.771a96.364,96.364,0,0,1,.819,21.7,261.294,261.294,0,0,1-3.276,27.3c-3.139,18.972-7.37,37.671-12.147,56.233-2.048,8.053-4.1,16.379-6.825,24.3a2.7,2.7,0,0,1-3.685,1.5,3.022,3.022,0,0,1-1.774-3.14c1.774-6.961,3.958-13.922,5.732-20.883,2.32-8.735,4.5-17.607,6.552-26.478,4.231-18.153,8.052-36.715,9.691-55.414.682-7.916,1.228-16.515.137-24.022a2.641,2.641,0,0,1,1.774-3.14,2.9,2.9,0,0,1,3,2.048" transform="translate(-120.111 -130.081)" fill="#333"/>
      <path id="Path_119" data-name="Path 119" d="M349.41,310.433c-2.048,14.741-2.73,29.755-3.412,44.768-.546,15.969-.682,32.075-.546,48.044q0,12.283.409,24.567c0,2.321-2.047,3.413-4.094,3.14-9.008-1.229-18.563-.819-27.707-.41-10.373.41-20.746,1.229-31.256,1.5a140.349,140.349,0,0,1-15.15-.273,3.139,3.139,0,1,1,0-6.279c20.063,1.365,40.127-1.774,60.191-1.638a101.16,101.16,0,0,1,15.7,1.092l-4.094,3.139c-.682-31.392-1.092-62.784,1.638-94.04.682-8.326,1.774-16.515,3.139-24.7a2.884,2.884,0,0,1,3.276-1.91,2.449,2.449,0,0,1,1.911,3" transform="translate(-120.012 -139.459)" fill="#333"/>
      <path id="Path_120" data-name="Path 120" d="M359.489,308.573l3.449,15.786,1.592,3.715-11.143,50.409,15.388,18.97,13.266-18.7-9.551-51.47,5.439-4.378,2.52-13.531Z" transform="translate(-160.333 -140.001)" fill="#bebebe"/>
      <path id="Path_121" data-name="Path 121" d="M366.189,343.04c-1.99,8.224-3.449,16.582-5.041,24.939-.8,4.51-1.591,9.02-2.388,13.4-.4,1.99-.663,3.98-1.061,5.837-.266,1.725-1.194,3.847-.133,5.439,1.724,2.653,3.979,5.173,5.837,7.694l2.918,3.847c.8,1.061,1.857,3.051,2.918,3.449l-1.592-.4c-.133,0-.4.4-.133.133.133-.133.266-.4.4-.531l1.194-1.592c.929-1.194,1.725-2.388,2.653-3.582,1.724-2.388,3.449-4.643,5.041-7.031a4.282,4.282,0,0,0,1.061-2.786,20.914,20.914,0,0,0-.53-3.051c-.266-1.857-.663-3.715-.929-5.439-1.459-9.021-2.653-18.041-4.245-26.929-.8-4.378-1.99-8.755-2.786-13.133a2.9,2.9,0,0,1,5.572-1.592,59.842,59.842,0,0,1,2.918,12.6c.928,5.041,1.592,9.95,2.388,14.99.663,4.776,1.459,9.551,2.255,14.194.265,1.99.663,3.979,1.061,5.837a10.735,10.735,0,0,1-1.592,8.755c-1.725,2.653-3.449,5.173-5.306,7.827-1.592,2.255-3.317,5.571-5.837,7.031a4.728,4.728,0,0,1-4.776.132,10.728,10.728,0,0,1-3.316-3.582l-5.837-7.827c-1.857-2.388-4.245-4.908-5.306-7.827-.928-2.521,0-5.306.4-7.827.929-4.51,1.725-9.02,2.653-13.4,1.99-10.347,3.98-20.96,7.827-30.909a2.2,2.2,0,0,1,2.786-1.061,3.2,3.2,0,0,1,.929,2.388" transform="translate(-159.34 -154.171)" fill="#333"/>
      <path id="Path_122" data-name="Path 122" d="M365.571,310.424c.4,1.99.8,3.98,1.194,6.1.266,1.592.53,3.317.929,4.908a9.166,9.166,0,0,0,.4,1.061c-.265-.53.266.4.266.531-.4-.663.53.53,0,.132a2.678,2.678,0,0,0,.8.266h2.123a14.4,14.4,0,0,0,2.388-.133c.133,0,1.061-.133.53,0a3.883,3.883,0,0,0,1.194-.265c.133,0,1.194-.4.663-.265.4-.133.663-.4,1.061-.53l.133-.133.4-.4.133-.132a.689.689,0,0,0,.265-.531c.133-.132.133-.4.266-.53s.133-.4,0-.133c.133-.4.265-.663.4-1.061s.133-.663.266-1.061c0-.133.265-1.194.133-.8.133-.929.133-1.99.265-2.918.133-2.255.266-4.776,1.725-6.633a2.617,2.617,0,0,1,3.051-.53,2.861,2.861,0,0,1,1.725,2.521,16.3,16.3,0,0,1-.265,2.52c-.133.929-.133,1.725-.266,2.521a34.5,34.5,0,0,1-.663,5.174,10.984,10.984,0,0,1-5.837,7.826,19.207,19.207,0,0,1-9.419,1.327,7.437,7.437,0,0,1-5.306-2.255,9.884,9.884,0,0,1-2.123-4.245c-.663-3.979-1.061-7.959-1.326-11.939-.266-2.388,4.377-3.052,4.908-.4" transform="translate(-163.629 -139.331)" fill="#333"/>
      <path id="Path_123" data-name="Path 123" d="M385.921,2.246a17.1,17.1,0,0,1-7.86,9.255A23.928,23.928,0,0,1,364.5,14.036a75.419,75.419,0,0,1-15.72-4.057c-4.817-1.648-9.635-3.55-14.706-3.93-9.762-.76-19.017,4.057-26.75,9.635a73.186,73.186,0,0,0-28.778,45.259c-.634,3.423-5.832,1.9-5.071-1.395a79.243,79.243,0,0,1,26.369-43.992c7.226-6.085,15.594-11.283,24.721-13.692a35.4,35.4,0,0,1,15.467-.38C345.1,2.5,349.916,4.4,354.86,6.049c5.2,1.775,11.156,3.423,16.734,2.282,3.931-.76,9.128-3.042,10.776-7.1.887-2.156,4.564-1.268,3.55,1.014" transform="translate(-124.04 0)" fill="#333"/>
      <path id="Path_124" data-name="Path 124" d="M375.872,8.734s-8.24,16.735-31.567,6.973c-23.454-9.762-42.47-6.593-58.951,14.832C269,51.965,266.59,69.206,266.59,69.206s-11.283-5.071-14.832,12.044,9.381,17.5,9.381,17.5,3.55,60.472,34.737,71.375,72.516-5.832,82.278-30.426,15.974-55.4,2.789-77.587C367.631,39.921,349,28.512,344.3,27.751s11.283.38,21.805-1.141,9.762-17.876,9.762-17.876" transform="translate(-113.944 -3.963)" fill="#fff"/>
      <path id="Path_125" data-name="Path 125" d="M266.118,121.427c-.38-3.17-3.423-6.085-6.846-4.69-3.3,1.394-5.958,5.832-7.1,9.128a16.443,16.443,0,0,0-.127,11.791,8.313,8.313,0,0,0,3.17,4.056c1.014.634,2.535,1.141,3.55.127,1.648-1.775,4.818.507,3.423,2.662-2.663,3.93-7.607,3.169-10.776.38s-4.817-7.733-4.944-12.044a24.991,24.991,0,0,1,4.184-13.945c2.282-3.677,5.958-7.353,10.649-7.353,5.2,0,9.128,4.31,9.762,9.255.254,2.662-4.564,3.3-4.944.634" transform="translate(-111.824 -50.606)" fill="#333"/>
      <path id="Path_126" data-name="Path 126" d="M382.891,52.289a26,26,0,0,0-10.4-3.93c-.888-.127-1.9-.127-2.789-.253h-1.014c.38,0-.888.127-.634.127.507.127-.127-1.395.254-1.268.634.127,1.521.888,2.155,1.014,3.17,1.141,6.339,2.282,8.114,5.451a10.66,10.66,0,0,1-.507,10.142c-4.564,7.607-13.819,6.085-21.172,5.7-7.479-.507-15.593-.507-22.566,2.789-7.607,3.676-13.692,10.269-19.651,16.1-1.521,1.394-4.31-.508-3.042-2.282,4.69-6.719,9.762-13.058,16.861-17.5,7.1-4.31,15.72-5.578,24.215-5.324,4.184.127,8.494.76,12.677.76,3.043,0,6.719-.887,7.987-4.057a5.61,5.61,0,0,0,.127-3.8,4.51,4.51,0,0,0-2.789-2.028c-3.17-1.268-7.987-2.662-7.86-6.973.254-4.944,6.339-5.071,9.889-4.69a29.16,29.16,0,0,1,13.184,4.818c2.916,2.281.127,7.226-3.043,5.2" transform="translate(-141.248 -19.119)" fill="#333"/>
      <path id="Path_127" data-name="Path 127" d="M428.433,129.067a41.215,41.215,0,0,1,3.677,15.086,2.94,2.94,0,0,1-3.043,2.663,2.972,2.972,0,0,1-2.662-2.663,33.575,33.575,0,0,0-.253-3.55l-.127-.76c0-.127-.127-1.141-.127-.508-.127-.507-.127-1.014-.253-1.648a31.527,31.527,0,0,0-2.028-6.719,2.563,2.563,0,0,1,2.155-2.916,2.865,2.865,0,0,1,2.663,1.014" transform="translate(-192.179 -58.087)" fill="#333"/>
      <path id="Path_128" data-name="Path 128" d="M372.922,141.819a53.109,53.109,0,0,1,2.789,7.48c.253,1.268.507,2.409.761,3.677l.38,2.282a3.02,3.02,0,0,1-2.155,3.17l1.268-1.014-.253.381a2,2,0,0,1-2.663.634c-.127-.127-.253-.127-.38-.253l-.253-.253,1.014.507a2.984,2.984,0,0,1-2.282-2.409c-.127-.507-.127-1.014-.253-1.521.127.634,0-.127,0-.253a29.51,29.51,0,0,0-.634-3.55,47.4,47.4,0,0,0-2.155-6.846,2.645,2.645,0,0,1,1.9-3.3,2.723,2.723,0,0,1,2.916,1.267" transform="translate(-166.967 -63.739)" fill="#333"/>
      <path id="Path_129" data-name="Path 129" d="M416.381,169.139c1.521,2.535,3.17,5.325,5.958,6.592,1.9.761,3.8,1.268,5.2,2.663a9.305,9.305,0,0,1,2.409,4.184,12.248,12.248,0,0,1-1.395,9.635,20.616,20.616,0,0,1-7.987,7.48,1.938,1.938,0,0,1-2.663-.887,2.129,2.129,0,0,1,.254-2.282c1.9-2.409,4.31-4.184,5.832-6.973a6.377,6.377,0,0,0,.127-6.212,4.937,4.937,0,0,0-2.536-1.648,15.772,15.772,0,0,1-4.564-2.409c-2.409-2.028-3.677-4.817-4.944-7.607-1.267-2.662,2.663-5.2,4.311-2.535" transform="translate(-186.846 -76.227)" fill="#333"/>
      <path id="Path_130" data-name="Path 130" d="M422.027,221.318A24.763,24.763,0,0,1,407.574,232.6c-7.353,2.155-15.213,1.521-22.82.634l2.789-2.663c.508,6.466,2.409,17.242,11.157,16.481,7.987-.76,11.41-9.382,15.34-15.087a2.159,2.159,0,0,1,2.789-.634,2.058,2.058,0,0,1,.887,2.156c-1.9,9.508-9,19.524-19.651,19.524a14.23,14.23,0,0,1-11.917-6.846c-3.042-4.69-3.423-10.269-4.057-15.593-.253-2.028,1.9-2.916,3.55-2.663,6.592.888,13.438,1.521,19.9-.127,5.071-1.267,10.269-3.8,13.058-8.367a2.033,2.033,0,0,1,2.789-.634,1.846,1.846,0,0,1,.634,2.535" transform="translate(-173.348 -99.12)" fill="#333"/>
      <path id="Path_131" data-name="Path 131" d="M268.855,117.451c-.634,3.677,0,7.607.507,11.283a60.071,60.071,0,0,0,2.535,12.424,87.027,87.027,0,0,0,5.451,12.171,114.867,114.867,0,0,0,7.48,12.677c5.325,7.607,12.17,14.833,20.665,18.89s18.129,4.311,27.13,2.916a73.647,73.647,0,0,0,26.623-9,64.893,64.893,0,0,0,19.777-18.256c12.044-16.861,15.593-38.667,11.917-58.825-3.3-17.875-12.3-35.624-27.384-46.4a56.18,56.18,0,0,0-5.832-3.677c-3.3-1.775-.38-6.719,2.916-4.945,17.5,9.635,29.159,27.638,34.23,46.654,5.7,21.425,3.8,45.512-7.607,64.909A70.409,70.409,0,0,1,340.1,192.249c-10.015,2.282-20.537,2.916-30.553.253-9.888-2.662-18.382-9.255-24.975-17.115a104.07,104.07,0,0,1-15.593-26.623,56.121,56.121,0,0,1-4.564-26.876,38.126,38.126,0,0,1,.634-5.325c.508-2.536,4.184-1.521,3.8.887" transform="translate(-119.885 -21.021)" fill="#333"/>
      <path id="Path_132" data-name="Path 132" d="M349.575,333.558c-11.569-8.327-22.415-16.852-22.523-16.937a3.384,3.384,0,1,1,4.185-5.318c.1.081,10.462,8.224,21.673,16.316,18.8,13.574,24.358,15.75,25.794,16.085,1.2-.936,5.514-5.615,16.837-28.748,6.687-13.661,12.488-26.989,12.546-27.121a3.384,3.384,0,0,1,6.206,2.7c-.063.144-6.334,14.552-13.391,28.858-13.874,28.128-18.136,30.792-21.314,31.11a7.4,7.4,0,0,1-.78.048c-2.327,0-7.7-1.49-29.233-16.989m29.472,10.2Z" transform="translate(-147.799 -129.668)" fill="#333"/>
      <path id="Path_133" data-name="Path 133" d="M444.635,583.542c1.932,0,15.228-.575,16.738-.641a3.384,3.384,0,0,0-.294-6.761c-3.147.137-10.385.443-14.186.574-1.161-4.711-3.229-17.3-4.8-26.853-3.6-21.9-4.834-28.568-6.092-30.546-1.043-1.639-3.267-3.627-16.542-6.477-6.523-1.4-12.66-2.349-12.918-2.389a3.384,3.384,0,0,0-1.029,6.689c10.178,1.567,22.273,4.276,24.8,5.94,1.022,3.01,3.372,17.318,5.107,27.88,1.2,7.324,2.447,14.9,3.494,20.515.574,3.072,1.046,5.344,1.447,6.946.54,2.162,1.28,5.123,4.276,5.123" transform="translate(-182.681 -231.575)" fill="#333"/>
      <path id="Path_134" data-name="Path 134" d="M470.59,536.875a3.384,3.384,0,0,0,.391-6.744l-8.936-1.052c-4.012-9-21.62-48.45-24.519-53.957-2.919-5.545-12.223-3.567-20-1.225a144.248,144.248,0,0,0-14.01,5.12,3.384,3.384,0,0,0,2.692,6.209c.056-.024,5.673-2.45,11.88-4.42,9.907-3.143,12.971-2.5,13.579-2.288,3.525,6.884,24.765,54.584,24.982,55.071a3.381,3.381,0,0,0,2.7,1.984l10.848,1.276a3.423,3.423,0,0,0,.4.024" transform="translate(-182.151 -213.943)" fill="#333"/>
      <path id="Path_135" data-name="Path 135" d="M517.624,378.57s10.965,72.551,6.275,107.839-6.518,76.39-6.518,76.39L657.6,558s.758-99.881,3.356-129.009,6.011-53.423,6.011-53.423Z" transform="translate(-234.738 -170.396)" fill="#ebebeb"/>
    </g>
  </g>
  <g id="Group_151" data-name="Group 151" transform="translate(281.855 158.226)">
    <g id="Group_150" data-name="Group 150" clip-path="url(#clip-path-2)">
      <rect id="Rectangle_116" data-name="Rectangle 116" width="47.907" height="35.931" transform="translate(-0.271 47.75) rotate(-89.798)" fill="url(#linear-gradient)"/>
    </g>
  </g>
  <g id="Group_153" data-name="Group 153">
    <g id="Group_152" data-name="Group 152" clip-path="url(#clip-path)">
      <path id="Path_137" data-name="Path 137" d="M526.144,194.275a26.093,26.093,0,0,0-12.536,10.487c-2.837,4.717-4.1,11.165-.217,15.7s9.3,3.887,14.185,5.305c2.128.6,4.052,1.759,3.759,4.274-.335,3.022-3.041,5.183-4.086,7.939a3.49,3.49,0,0,0,5.059,3.934c4.821-3.514,7.749-11.132,5.071-16.742-2.377-5-8.094-6.116-12.961-6.9-2.028-.352-4.746-.686-6.079-2.334a6.251,6.251,0,0,1-.445-6.088,18.689,18.689,0,0,1,10.184-10.881c2.663-1.228.752-5.922-2.012-4.8Z" transform="translate(-231.821 -88.019)" fill="gray"/>
      <path id="Path_138" data-name="Path 138" d="M531.444,169.324c3.853.562,11.256,1.5,11.379,6.756.1,4.911-5.241,7.489-8.617,9.81-4.251,2.927-8.145,8.087-5.648,13.412s9.638,5.817,14.7,4.273c2.946-.9,2.577-5.733-.731-5.562-2.374.114-5.38,1.016-7.546-.392-1.66-1.081-1.187-2.926-.147-4.322a18.714,18.714,0,0,1,5.269-4.039,20.426,20.426,0,0,0,5.74-5.3,11.139,11.139,0,0,0,.046-13.168c-3.291-4.415-8.767-5.326-13.9-5.954-2.475-.293-3.1,4.048-.6,4.4Z" transform="translate(-239.453 -74.783)" fill="gray"/>
    </g>
  </g>
  <g id="Group_155" data-name="Group 155" transform="translate(324.202 305.943)">
    <g id="Group_154" data-name="Group 154" clip-path="url(#clip-path-4)">
      <rect id="Rectangle_118" data-name="Rectangle 118" width="105.812" height="121.938" transform="translate(-0.371 105.383) rotate(-89.798)" fill="url(#linear-gradient-2)"/>
    </g>
  </g>
  <g id="Group_157" data-name="Group 157">
    <g id="Group_156" data-name="Group 156" clip-path="url(#clip-path)">
      <path id="Path_140" data-name="Path 140" d="M626.594,96.45c-4.784-1.255-17.856,109.707-12.742,109.522,1.583.005,53.394,14.391,84.333,9.569s38.427-5.16,38.427-5.16,13.031-58.8,9.578-86.545l-3.432-27.83a275.56,275.56,0,0,0-116.163.443" transform="translate(-277.978 -40.85)" fill="gray"/>
      <path id="Path_141" data-name="Path 141" d="M619.028,256.924l125.423,3.1-4.961,26.035-38.448,5.16,9.655,18.133-11.084,13.211-47.71,2.044,16.819-10.979-4.768-22.985-44.145-7.663Z" transform="translate(-280.856 -116.567)" fill="#ebebeb"/>
      <path id="Path_142" data-name="Path 142" d="M493.643,373.094c51.993,3.748,88.434,4.249,140.5,1.611,15.281-.738,30.543-1.739,45.8-2.882,5.5-.427,5.571-9.05.031-8.623-51.977,3.875-104.089,5.822-156.25,4.583-15.3-.358-14.863-.641-30.139-1.283-4.261-.178-4.222,6.295-.023,6.594Z" transform="translate(-222.497 -164.778)" fill="#333"/>
      <path id="Path_143" data-name="Path 143" d="M509.83,378.678c.779,14.956,1.254,29.933,1.871,44.889s1.562-17.246,2.037-2.25c.911,29.586,1.049,59.21-.515,88.788-.912,16.919-2.372,33.795-4.521,50.608a4.444,4.444,0,0,0,4.387,4.418,4.545,4.545,0,0,0,4.439-4.387c7.533-59.079,6.543-71.84,2.958-131.161-1.036-16.987-2.539-33.913-3.777-50.881-.309-4.424-7.167-4.529-6.94-.024Z" transform="translate(-230.8 -170.294)" fill="#333"/>
      <path id="Path_144" data-name="Path 144" d="M515.184,721.253c14.83.539,29.64,1,44.493.928,5.722.02,5.754-9.049.031-8.866-14.834.414-29.664.159-44.5.107-5.052-.018-5.059,7.651-.027,7.832" transform="translate(-232.032 -323.632)" fill="#333"/>
      <path id="Path_145" data-name="Path 145" d="M776.289,376.422c-6.389,37.912-9.675,29.062-10.159,67.506q-.3,16.555-.117,33.153c.081,5.682,8.928,5.733,8.846.032-.453-38.31,1.178-29.25,4.438-67.4.931-10.811,2-21.622,3.158-32.453.377-3.489-5.544-4.341-6.084-.874Z" transform="translate(-347.511 -169.762)" fill="#333"/>
      <path id="Path_146" data-name="Path 146" d="M620.3,102.41a507.824,507.824,0,0,0-10.593,92.465c-.013,3.551-.208,7.142-.038,10.713a11.117,11.117,0,0,0,4.026,9.286,21.193,21.193,0,0,0,8.349,2.87q5.961,1.238,11.964,2.213a338.562,338.562,0,0,0,45.252,4.4,243.516,243.516,0,0,0,51.549-3.43c4.061-.777,3.233-7.638-.968-7.349-14.207.985-28.413,1.929-42.738,2a327.081,327.081,0,0,1-42.742-2.809q-10.526-1.377-20.968-3.483c-1.825-.351-4.848-.281-5.287-2.413a55.025,55.025,0,0,1-.2-10.978q.076-21.568,1.957-43.09a479.892,479.892,0,0,1,6.746-48.672c.785-4.056-5.4-5.822-6.243-1.727Z" transform="translate(-276.578 -45.407)" fill="#333"/>
      <path id="Path_147" data-name="Path 147" d="M639.04,97.139a382.268,382.268,0,0,1,88.251-2.468c3.448.316,6.9.694,10.324,1.112,1.744.208,3.488.438,5.212.688l2.453.374,1.765.291c.851.327,1.034.328.507,0a11.915,11.915,0,0,1,1.2,3.879c.44,1.666.86,3.352,1.22,5.036.759,3.412,1.376,6.863,1.83,10.314a175.478,175.478,0,0,1-.331,42.284c-1.78,15.719-5.061,31.249-8.281,46.638-1.217,5.7,7.519,8.143,8.757,2.445,6.292-29.581,12.872-59.993,9.084-90.442a105.407,105.407,0,0,0-4.609-22.152,9.273,9.273,0,0,0-6.977-6.578c-3.832-.8-7.909-1.063-11.8-1.5a351.847,351.847,0,0,0-47.37-2.2A319.872,319.872,0,0,0,637.2,90.153a3.673,3.673,0,0,0-2.532,4.435,3.712,3.712,0,0,0,4.434,2.551Z" transform="translate(-287.899 -38.467)" fill="#333"/>
      <path id="Path_148" data-name="Path 148" d="M752.565,321.9a34.85,34.85,0,0,0,4.018,11.417l.665,1.26a6.44,6.44,0,0,1,.322.651c-.141-.345-.161-.345,0,0a6.48,6.48,0,0,1,.3,1.076c.261,1,.1-.648,0,.284,0,.508-.146,1.1,0,.284a4.652,4.652,0,0,1-.289,1.135c-.288,1.136.449-.749-.1.324-.184.344-.368.709-.592,1.053s-.876,1.093-.2.324c-.285.323-.55.627-.835.91s-.529.444-.774.687-.2.182.163-.121a3.865,3.865,0,0,1-.488.363,13.182,13.182,0,0,1-2.033,1.149c.711-.343-.508.161-.65.221l-1.381.4c-.914.24-1.848.44-2.8.619l-1.4.219-.771,0a22.318,22.318,0,0,0-6.417,1.519,3.084,3.084,0,0,0-.019,5.316,22.157,22.157,0,0,0,14.341,1.167,18.262,18.262,0,0,0,11.329-7.63,13.737,13.737,0,0,0,1.042-13.692c-.906-1.89-2.016-3.619-3-5.489q-.342-.752-.121-.244l-.261-.67c-.2-.548-.382-1.077-.563-1.625a30.257,30.257,0,0,1-.82-3.31,4.525,4.525,0,0,0-5.508-3.144,4.646,4.646,0,0,0-3.164,5.508Z" transform="translate(-334.726 -143.461)" fill="#333"/>
      <path id="Path_149" data-name="Path 149" d="M685.147,321.44a39.729,39.729,0,0,0,2.6,10.844l.845,2.032c-.262-.61,0,0,.121.345a14.748,14.748,0,0,1,.661,2.417c-.119-.69,0-.2,0,.223s0,.71,0,1.055c0-1.014,0,.142,0,.386a9.669,9.669,0,0,1-.307,1.013c0,.243-.511.952,0,.2-.184.284-.327.607-.49.911l-.571.851c.469-.83,0,.122-.224.3a12.659,12.659,0,0,1-1.4,1.355c.916-.748-.244,0-.366.161a2.973,2.973,0,0,1-.752.382l-.772.281c-.447.161-.894.3-1.361.422s-1.523.319-2.294.458a17.722,17.722,0,0,0-5.179,1.443,3.084,3.084,0,0,0-.019,5.3A15.936,15.936,0,0,0,697.9,332.07l-.028-.075c-.443-1.1-.946-2.154-1.45-3.211a16.408,16.408,0,0,1-.824-2.032,35.949,35.949,0,0,1-1.581-6.356,4.5,4.5,0,0,0-8.83,1.166Z" transform="translate(-305.857 -143.889)" fill="#333"/>
      <path id="Path_150" data-name="Path 150" d="M625.021,257.454c19.776,1.774,39.617,2.716,59.459,3.212q14.628.356,29.277.367,7.548.026,15.137-.15c2.353.008,4.707-.085,7.062-.239s5.316.019,7.251-2.105a3.185,3.185,0,0,0,.015-4.4c-2.022-2.036-4.559-1.822-7.237-1.892l-7.061-.025-15.137.109q-14.65-.052-29.278-.306c-19.843-.455-39.662-1.5-59.461-2.725-5.254-.323-5.181,7.651-.029,8.116Z" transform="translate(-281.811 -113.103)" fill="#333"/>
      <path id="Path_151" data-name="Path 151" d="M728.166,274.591a9.963,9.963,0,0,0-13.4,3.483,10.813,10.813,0,0,0-1.1,7.767,9.494,9.494,0,0,0,4.868,6.226,10.15,10.15,0,0,0,4.865,1.235,6.635,6.635,0,0,0,5.813-2.922,4.059,4.059,0,0,0-2.333-5.811,4.6,4.6,0,0,0-1.46-.249,10.334,10.334,0,0,0-1.563.218l1.157-.158a11.207,11.207,0,0,1-2.739-.01l1.176.167a6.866,6.866,0,0,1-1.683-.452l1.034.45a8.646,8.646,0,0,1-1.62-.939l.85.652a5.776,5.776,0,0,1-.93-.937l.646.834a6.674,6.674,0,0,1-.766-1.281l.4.955a6.98,6.98,0,0,1-.461-1.726l.119,1.035a7.712,7.712,0,0,1,.006-1.806l-.145.994a7.21,7.21,0,0,1,.37-1.3l-.368.871a6.353,6.353,0,0,1,.755-1.3l-.55.708a6.12,6.12,0,0,1,1.038-.99l-.712.545a4.793,4.793,0,0,1,1.118-.665l-.833.342a6.909,6.909,0,0,1,1.686-.461l-.914.119a8.351,8.351,0,0,1,1.745.006l-.912-.125a6.513,6.513,0,0,1,1.52.432l-.811-.348.648.327a3.429,3.429,0,1,0,3.47-5.892Z" transform="translate(-323.661 -123.998)" fill="#333"/>
      <path id="Path_152" data-name="Path 152" d="M543.917,287.138a75.971,75.971,0,0,1-.521,27,82.641,82.641,0,0,1-3.84,13.013c-.2.527-.41,1.054-.635,1.58s-.368.77.182.264a12.361,12.361,0,0,1-3.693.169l-6.9.3-3.227.172a13.1,13.1,0,0,1-3.43.17c.526.57.546.489,0-.244a4.637,4.637,0,0,1-.7-1.524c-.443-.956-.845-2.032-1.227-2.926a73.625,73.625,0,0,1-3.567-12.816,65.231,65.231,0,0,1-1.111-13.03c.016-4.464.863-8.782,1.264-13.2s-6.07-4.871-7.28-1.02c-2.483,7.843-2.09,17.138-1,25.177a68.941,68.941,0,0,0,2.717,12.183,52.746,52.746,0,0,0,4.829,11.5c2.563,4.067,7.07,3.292,11.25,3.1a94.484,94.484,0,0,0,13.577-.8c4.386-.877,5.418-5.825,6.567-9.513a83.892,83.892,0,0,0,2.823-12.408,90.253,90.253,0,0,0-.285-28.712c-.676-3.878-6.485-2.234-5.869,1.583Z" transform="translate(-230.2 -128.14)" fill="#333"/>
      <path id="Path_153" data-name="Path 153" d="M581.439,303.2c.491-1.053,1.085-2.735,2.223-3.3s.932.166,1.153.937a19.306,19.306,0,0,1-.154,9.191,22.766,22.766,0,0,1-4.089,8.771c-.9,1.214-1.774,2.51-2.732,3.663.265-.3-.936.829-.488.506a5.4,5.4,0,0,1-1.687.765c-3.453,1-2.945,6.6.849,6.455a8.114,8.114,0,0,0,6.24-2.981,55.036,55.036,0,0,0,3.59-5.283,33.48,33.48,0,0,0,4.675-13.72c.481-4.056.644-9.98-2.694-12.954a6.634,6.634,0,0,0-7.423-.8,11.1,11.1,0,0,0-4.768,5.664,3.124,3.124,0,0,0,1.081,4.163,3.064,3.064,0,0,0,4.163-1.081Z" transform="translate(-260.13 -133.24)" fill="#333"/>
      <path id="Path_154" data-name="Path 154" d="M547.492,281.757c-5.561.386-11.142.651-16.722.671a60.852,60.852,0,0,1-8.115-.434,28.4,28.4,0,0,0-8.459-.618,2.9,2.9,0,0,0-1.3,4.8,15.786,15.786,0,0,0,9.12,3.156,65.511,65.511,0,0,0,8.459.436,122.838,122.838,0,0,0,17.842-1.967c3.37-.515,2.639-6.22-.791-5.968Z" transform="translate(-232.337 -127.624)" fill="#333"/>
      <path id="Path_155" data-name="Path 155" d="M717.151,542.831c-.263-11.85-10.8-22.621-22.87-22.156a22.58,22.58,0,0,0-15.507,7.29,24.2,24.2,0,0,0-4.816,7.714,18.361,18.361,0,0,0-1.048,3.892,6.372,6.372,0,0,0,1.136,5.6,3.592,3.592,0,0,0,5.053.018c1.792-2.022,1.436-4.5,2.357-6.911a14.779,14.779,0,0,1,2.938-4.677,14.994,14.994,0,0,1,9.858-5.017,15.177,15.177,0,0,1,15.289,14.257c.145,4.87,7.693,4.937,7.609.027Z" transform="translate(-305.201 -236.226)" fill="#333"/>
      <path id="Path_156" data-name="Path 156" d="M589.253,564.077a485.676,485.676,0,0,0,60.987,1.635,478.021,478.021,0,0,0,60.893-6.5,4.5,4.5,0,0,0,3.144-5.487,4.586,4.586,0,0,0-5.508-3.165,529.079,529.079,0,0,1-119.433,7.047c-4.179-.238-4.079,6.073-.023,6.473Z" transform="translate(-265.978 -249.729)" fill="#333"/>
      <path id="Path_157" data-name="Path 157" d="M809.058,556.154c-.965,14.808-1.5,29.557-1.618,44.409s0,29.664,1,44.4c.366,5.621,8.948,5.794,8.847.031-.293-14.793-.951-29.607-1.264-44.4s-.524-29.625-.635-44.417a3.165,3.165,0,0,0-6.33-.022Z" transform="translate(-366.323 -250.901)" fill="#333"/>
      <path id="Path_158" data-name="Path 158" d="M585.224,569.162c2.4,15.023,4.134,30.227,5.034,45.407q.671,11.284.59,22.625c-.013,3.774-.026,7.548-.243,11.321-.007,2.029-.176,3.936-.285,5.9a11.909,11.909,0,0,0,.751,5.826,3.449,3.449,0,0,0,6.226.834,11,11,0,0,0,1.643-5.655c.007-2.029.216-3.915.284-5.883.156-3.935.231-7.872.245-11.808q.042-11.829-.688-23.62a286.641,286.641,0,0,0-6.836-46.712c-1.019-4.447-7.418-2.5-6.723,1.843Z" transform="translate(-265.495 -256.287)" fill="#333"/>
      <path id="Path_159" data-name="Path 159" d="M689.907,625.6c-.017,4.808-.176,9.6-.253,14.385a16.01,16.01,0,0,0,1.272,7.37,10.492,10.492,0,0,0,4.732,4.6,12.885,12.885,0,0,0,11.586-.264,12.5,12.5,0,0,0,6.551-10.568,47.958,47.958,0,0,0-.115-7.63,33.341,33.341,0,0,0-1.411-8.608,3.632,3.632,0,0,0-3.44-2.63,39.114,39.114,0,0,1-4.362-.015c-1.461,0-2.922-.01-4.363.086s-3.024.375-4.547.593-3.512.414-4.512,2.134a2.5,2.5,0,0,0,.355,2.923,5.379,5.379,0,0,0,4.521,1.051l4.159.014,3.916.014a19.222,19.222,0,0,1,3.854.3l-2.605-3.458c-.014,4.058.581,7.956.607,11.933,0,.913-.006,1.826-.009,2.719,0,.2,0,.426,0,.629,0-.609,0,0,0,.162a3.78,3.78,0,0,1-.432,1.581c-.265.222.408-.729.143-.344s-.122.243-.2.364-.632.931-.266.486-.305.283-.407.384l-.305.283c-.163.142-.549.282,0,.1s-.325.181-.488.282-1.037.626-.508.282-.2,0-.406.12l-1.056.26c-.508.181.832,0,.284,0l-.528,0-.953,0-.406,0s.852.206.426,0a9.862,9.862,0,0,0-1.034-.288c-.487,0,.426.123.345.184a2.7,2.7,0,0,1-.486-.245c-.263-.143-.486-.307-.749-.47.729.449-.1-.142-.283-.346l-.344-.367c-.586-.712.121.346,0-.121a1.785,1.785,0,0,0-.242-.427c.1.163.18.63,0-.122-.1-.386-.18-.751-.26-1.137s0-.751,0,0l0-.588a6.782,6.782,0,0,0-.136-1.685c-.471-4.567-.922-9.154-1.271-13.741a3.145,3.145,0,0,0-3.053-3.054,3.105,3.105,0,0,0-3.075,3.033Z" transform="translate(-312.883 -282.315)" fill="#333"/>
      <path id="Path_160" data-name="Path 160" d="M604.487,639.684a135.185,135.185,0,0,0,26.035,4.9c4.219.38,8.479.558,12.72.532a56.471,56.471,0,0,0,6.372-.221,8.438,8.438,0,0,0,3.736-.819,3.913,3.913,0,0,0,1.385-1.374c.41-1.114.491-1.216.265-.324a2.5,2.5,0,0,0-.494-3.917c.424.651.3.528-.364-.387a3.649,3.649,0,0,0-1.68-1,10.157,10.157,0,0,0-2.819-.193c-2.131-.007-4.241.249-6.373.282q-6.087.12-12.274-.328a127.306,127.306,0,0,1-24.5-4.347,3.742,3.742,0,1,0-2.054,7.2Z" transform="translate(-273.008 -286.897)" fill="#333"/>
      <path id="Path_161" data-name="Path 161" d="M728.619,640.356a100.335,100.335,0,0,0,26-3.114,111.837,111.837,0,0,0,12.187-3.772c3.942-1.467,8.513-3.216,10.961-6.84a2.6,2.6,0,0,0-2.2-3.863c-3.834-.278-7.8,1.718-11.292,3.024a113.865,113.865,0,0,1-11.822,3.691,137.113,137.113,0,0,1-23.853,3.609,3.632,3.632,0,0,0-.026,7.264Z" transform="translate(-328.922 -282.54)" fill="#333"/>
      <path id="Path_162" data-name="Path 162" d="M599.38,734.552c1.885.473,3.607,1.372,5.513,1.825s4.055.826,6.184,1.138q6.084.914,12.169,1.483a225.28,225.28,0,0,0,24.346.694,313.241,313.241,0,0,0,47.939-3.889,114.105,114.105,0,0,0,12.529-2.817c4.062-1.142,9.4-2.259,11.829-5.843a3.51,3.51,0,0,0-1.245-4.805,3.47,3.47,0,0,0-.766-.335,13.568,13.568,0,0,0-7.207,1.192c-2.336.763-4.672,1.444-7.048,2a132.633,132.633,0,0,1-13.523,2.651c-9.521,1.407-19.2,1.961-28.821,2.577-10.026.553-20.09.761-30.132.32-4.828-.22-9.677-.562-14.483-1.085-2.576-.273-5.131-.606-7.687-.96s-5.193-.262-7.667-.7c-4.2-.725-6.106,5.4-1.828,6.506Z" transform="translate(-270.893 -327.54)" fill="#333"/>
    </g>
  </g>
</svg>
