<svg xmlns="http://www.w3.org/2000/svg" xmlns:xlink="http://www.w3.org/1999/xlink" width="210.714" height="424.447" viewBox="0 0 210.714 424.447">
  <defs>
    <clipPath id="clip-path">
      <rect id="Rectangle_136" data-name="Rectangle 136" width="210.714" height="424.447" fill="none"/>
    </clipPath>
  </defs>
  <g id="Group_177" data-name="Group 177" clip-path="url(#clip-path)">
    <path id="Path_229" data-name="Path 229" d="M172.067,367.781l-85.91-1.89A860.632,860.632,0,0,0,92.6,239.845c0,.651,8.166,2.42,9.073,2.632q4.734,1.15,9.557,1.86a109.1,109.1,0,0,0,38.457-1.21c3.024-.635,5.912-1.618,8.892-2.207,1.814-.348,6.608-7.063,8.15-5.762,1.921,1.618-1.255,11.311-1.391,13.429-.212,3.477-.409,6.956-.545,10.449q-.454,10.358-.453,20.733,0,20.838,1.693,41.617t5.156,41.329c.273,1.693.575,3.387.877,5.066" transform="translate(-31.093 -44.775)" fill="#733e90"/>
    <path id="Path_230" data-name="Path 230" d="M62.032,9.649S68.957,24.454,96.1,13.1s69.563-6.412,86.908,45.367,8.892,43.447,8.892,43.447,12.339-18.752,19.75,0-12.356,40.981-16.786,42.464l-4.446,1.512s-16.15,56.785-67.581,56.285S50.252,164.154,47.727,153.3l-2.481-10.857s-13.323,5.928-17.269-23.213-3.463-37.035,9.875-33.073,10.857,4.93,10.857,4.93S61.548,55.53,73.389,44.2s36.052-18.767,36.052-18.767-20.734,1.981-32.09.5S62.032,9.649,62.032,9.649" transform="translate(-23.483 -1.536)" fill="#fff"/>
    <path id="Path_231" data-name="Path 231" d="M148.314,259.7a25.364,25.364,0,0,0-.937,8.181c.317,4.234,2.148,8.166,3.644,12.1a86.006,86.006,0,0,1,5.565,26.781,40.012,40.012,0,0,1-1.24,13.353c-2.041,6.775-6.715,12.4-11.281,17.815a5.819,5.819,0,0,1-3.024,2.283c-1.89.363-3.539-1.165-4.854-2.555-6.049-6.472-12.506-13.837-12.581-22.684a35.689,35.689,0,0,1,1.89-10.117L136,268.351c-3.977.681-6.23-4.416-6.76-8.423a96.274,96.274,0,0,1-.8-13.036c0,.212,12.9,1.346,14.094,1.513l7.108.756c.771.075,2.026-.121,2.238.816s-.8,2.042-1.089,2.708a44.78,44.78,0,0,0-2.48,7.016" transform="translate(-46.039 -47.042)" fill="#bebebe"/>
    <path id="Path_232" data-name="Path 232" d="M25.956,115.717a11.054,11.054,0,0,1,12.386-4.688c5.02,1.391,8.483,6.048,9.723,10.948,1.512,6.049.181,12.461-1.119,18.374a51.006,51.006,0,0,1-6.291,16.392,28.984,28.984,0,0,1-13.61,11.78c-3.871,1.513-6.638-4.975-2.858-6.759C34.47,156.925,38.6,146.778,40.9,136.237c1.134-5.172,2.449-11.326-.665-16.075-1.8-2.737-6.714-4.854-8.968-1.345s-7.349.3-5.308-3.025Z" transform="translate(143.855 -21.073)" fill="#333"/>
    <path id="Path_233" data-name="Path 233" d="M249.863,107.854c-2.5-1.512-5.535-3.554-8.62-2.919a6.186,6.186,0,0,0-4.1,4.129c-2.177,5.081-2.071,11.553-1.8,16.952a62.744,62.744,0,0,0,3.766,18.449,44.034,44.034,0,0,0,3.75,8.03c1,1.618,2.6,3.856,4.673,4.053a3.827,3.827,0,0,1,3.72,3.72,3.781,3.781,0,0,1-3.72,3.72c-6.17-.076-10.177-5.036-12.718-10.147a67.513,67.513,0,0,1-6.048-18.147,66.528,66.528,0,0,1-.756-18.9c.574-5.308,1.587-11.478,5.822-15.228,5.868-5.187,13.156-2.223,18.949,1.512,3.024,1.951.287,6.821-2.874,4.93Z" transform="translate(-227.661 -18.82)" fill="#333"/>
    <path id="Path_234" data-name="Path 234" d="M173.461,105.652a55.789,55.789,0,0,0-1.255,11.78c0,2.027.105,4.053.3,6.049s.816,4.1.892,6.246a3.707,3.707,0,0,1-3.237,3.66,3.781,3.781,0,0,1-4.082-2.662,27.913,27.913,0,0,1-1.195-7.244,58.582,58.582,0,0,1-.288-6.306,62.779,62.779,0,0,1,1.71-13.52,3.752,3.752,0,0,1,4.537-2.586,3.8,3.8,0,0,1,2.586,4.537Z" transform="translate(-96.063 -19.235)" fill="#333"/>
    <path id="Path_235" data-name="Path 235" d="M116.354,106.124a61.656,61.656,0,0,1,1.754,13.5,55.118,55.118,0,0,1-.242,6.321,28.423,28.423,0,0,1-1.164,7.229,3.781,3.781,0,0,1-4.1,2.677,3.72,3.72,0,0,1-3.221-3.66c0-2.163.665-4.22.861-6.246a58.274,58.274,0,0,0,.257-6.049,53.945,53.945,0,0,0-1.3-11.78,3.709,3.709,0,1,1,7.153-1.966Z" transform="translate(4.31 -19.707)" fill="#333"/>
    <path id="Path_236" data-name="Path 236" d="M125.249,148.81c5.868,2.8,12.416,7,13.489,13.973a13.2,13.2,0,0,1-3.175,10.843,13.053,13.053,0,0,1-9.633,4.537,3.834,3.834,0,0,1,0-7.667c.2,0,1.134-.227.242,0l.937-.227c.181,0,1.059-.409.272,0a7.837,7.837,0,0,0,.711-.363c.272-.151.529-.347.817-.5s-.408.393.106-.076a12.786,12.786,0,0,0,1.331-1.391c-.529.68.075-.181.136-.273s.3-.559.453-.831c-.242.453-.091.242,0-.121s.182-.6.257-.907.075-.62,0-.091v-.953c0-.166-.151-1.179,0-.272a4.121,4.121,0,0,0-.2-.937c-.075-.317-.2-.59-.272-.892-.181-.681.166.272,0-.106a14.749,14.749,0,0,0-.832-1.512l-.544-.787c.453.651-.181-.211-.227-.272-.424-.514-.862-1-1.331-1.512a24.2,24.2,0,0,0-5.883-4.159,3.212,3.212,0,0,1,3.236-5.55Z" transform="translate(-25.575 -28.262)" fill="#333"/>
    <path id="Path_237" data-name="Path 237" d="M171.229,192.3c-5.429,10.026-15.878,16.892-26.872,19.372a53.308,53.308,0,0,1-37.428-6.049c-6.049-3.358-11.477-7.8-14.245-14.2A3.19,3.19,0,0,1,93.5,187.4a3.024,3.024,0,0,1,4.083.242A48.106,48.106,0,0,0,123.9,203.957a40.225,40.225,0,0,0,29.565-4.144,38.425,38.425,0,0,0,11.81-11.024c2.51-3.614,8.091-.484,5.958,3.478Z" transform="translate(-35.7 -35.577)" fill="#333"/>
    <path id="Path_238" data-name="Path 238" d="M94.8,239.848c2.435,33.95,1.437,68.187-1.421,102.076q-1.15,13.762-2.9,27.493L86.6,365.545c22.154-.817,44.324-.817,66.539-.575,5.822.075,11.63.151,17.436.363,4.9.167,4.93,7.7,0,7.561-22.169-.287-44.323-.5-66.538-.136-5.807.106-11.614.242-17.421.453a3.856,3.856,0,0,1-3.856-3.856A800.2,800.2,0,0,0,88.75,267.476c0-9.209,0-18.419-.347-27.629-.137-4.174,6.154-4.1,6.442,0Z" transform="translate(-30.542 -45.109)" fill="#333"/>
    <path id="Path_239" data-name="Path 239" d="M94.317,231.519c-1.255,8.453-1.845,17.089-2.465,25.6-.635,8.847-1.043,17.739-1.195,26.615a438.614,438.614,0,0,0,2.283,52.928c1.013,9.587,2.359,19.145,4.128,28.641a3.434,3.434,0,0,1-2.329,4.084,3.358,3.358,0,0,1-4.083-2.314,405.264,405.264,0,0,1-5.217-107.247c.831-9.981,2.3-19.8,3.78-29.7a2.662,2.662,0,0,1,3.252-1.845,2.692,2.692,0,0,1,1.845,3.252Z" transform="translate(45.552 -43.479)" fill="#333"/>
    <path id="Path_240" data-name="Path 240" d="M76.069,398.442a509.019,509.019,0,0,1,10.449,74.19c.5,7.138.8,14.29,1.029,21.444l-3.842-3.841c3.025,0,5.9,0,8.847.105s6.155-.227,9.074,1.013a3.237,3.237,0,0,1,1.512,3.3,3.448,3.448,0,0,1-2.36,2.752c-2.555,1.043-5.9.559-8.619.559H83.691a3.9,3.9,0,0,1-3.826-3.841,590.957,590.957,0,0,0-10.283-93.849c-.786-4.189,5.535-6.049,6.472-1.785Z" transform="translate(51.263 -75.466)" fill="#333"/>
    <path id="Path_241" data-name="Path 241" d="M193.484,402.362c-1.6,15.712-2.813,31.469-3.766,47.243-.484,7.818-.892,15.651-1.179,23.5-.151,3.978-.227,7.97-.363,11.947A112.465,112.465,0,0,0,187.964,497a3.614,3.614,0,0,1-3.6,3.6c-5.974-.136-12.1.106-18.057-.484-4.536-.453-4.688-6.941,0-7.168,6.049-.272,12.1.287,18.057.469L180.781,497c.363-3.947.151-7.985.227-11.947s.242-7.969.423-11.947c.333-7.969.757-15.924,1.346-23.878,1.179-15.924,3.025-31.757,5.217-47.6C188.433,398.6,193.8,399.232,193.484,402.362Z" transform="translate(-114.603 -76.149)" fill="#333"/>
    <path id="Path_242" data-name="Path 242" d="M232.176,254.541c-11.463,13.157-22.835,26.389-33.708,40.044-4.1,5.157-9.467,11.373-7.168,18.4a21.626,21.626,0,0,0,5.5,8c2.782,2.827,5.822,5.382,8.816,7.954q11.025,9.512,22.608,18.373a3.887,3.887,0,0,1,1.693,4.2c-1.058,4.37-2.177,9.073-5.656,12.189a11.568,11.568,0,0,1-12.853,2.283,3.872,3.872,0,0,1-1.391-5.263,3.946,3.946,0,0,1,5.278-1.391c1.6.741,3.7-.968,4.537-2.133a20.863,20.863,0,0,0,2.888-7.667l1.709,4.19Q213,345.2,202.1,336.005c-6.049-5.125-13.248-10.389-16.862-17.677a19.662,19.662,0,0,1-1.845-12.341,27.947,27.947,0,0,1,5.4-11.25c5.354-7.335,11.358-14.26,17.3-21.171,6.971-8.031,14.154-15.939,21.685-23.456,2.843-2.827,6.941,1.406,4.355,4.371Z" transform="translate(-170.444 -47.478)" fill="#333"/>
    <path id="Path_243" data-name="Path 243" d="M69.558,6.42c2.662,3.63,7.471,5.58,11.825,6.049,5.868.559,11.7-1.27,17.043-3.524,5.9-2.48,11.553-5.52,17.723-7.335A39.034,39.034,0,0,1,134.932.764c12.1,2.435,23.984,8.983,33.27,16.983,8.847,7.561,15.258,17.587,19.855,28.2a155.2,155.2,0,0,1,11.9,74.508c-1.1,12.945-3.448,25.92-9.073,37.715a109.731,109.731,0,0,1-9.633,15.908A96.251,96.251,0,0,1,169.9,188.07c-9.073,8.786-20.869,12.249-33.073,13.943A101.766,101.766,0,0,1,98.8,200.682c-21.443-5.217-40.679-20.022-48.3-41.148-4.083-11.372-5.006-24.2-4.779-36.188a136.929,136.929,0,0,1,4.779-33.4A134.4,134.4,0,0,1,63.358,58.879,109.889,109.889,0,0,1,84.529,31.81a43.947,43.947,0,0,1,16.045-9.331,20.875,20.875,0,0,1,7.772-.983,9.707,9.707,0,0,1,6.246,2c4.96,4.37.953,11.024-3.524,13.792a22.715,22.715,0,0,0-2.691,1.739,4.235,4.235,0,0,0-.787.862c-.877,1.376-.2.409-.181.348s-.091.711,0,.348a3.735,3.735,0,0,0,2.374,3.448c5.126,2.147,11.1-2.207,15.516-4.219a40.056,40.056,0,0,1,15.3-3.766,57.163,57.163,0,0,1,29.05,6.624,44.168,44.168,0,0,1,11.675,8.847c2.162,2.3-1.3,5.762-3.448,3.463A39.177,39.177,0,0,0,153.064,42.29a39.681,39.681,0,0,0-13.943.831,60.5,60.5,0,0,0-13.776,5.58c-5.248,2.782-11.16,5.156-17.164,3.418a11.946,11.946,0,0,1-8.847-12.567,10.146,10.146,0,0,1,4.658-7.2c1.845-1.255,4.536-1.905,6.049-3.6a1.867,1.867,0,0,0,.469-.816c0,.453,0-.091-.106-.151a3.129,3.129,0,0,0-1.6-.726c-1.663-.348-4.1.817-5.852,1.633C92.771,33.353,84.7,41.746,78.042,50.577A118.426,118.426,0,0,0,62.6,77.8a128.781,128.781,0,0,0-8.3,62.773c1.27,10.782,4.325,21.307,11.1,29.957a63.4,63.4,0,0,0,23.062,17.92,77.918,77.918,0,0,0,33.512,6.775,99.8,99.8,0,0,0,17.632-1.633,58.991,58.991,0,0,0,16.09-4.9c9.95-5.081,16.816-14.684,22.895-23.742a80.417,80.417,0,0,0,8.453-15.576,93.934,93.934,0,0,0,4.748-17.8,150.3,150.3,0,0,0-4.884-72.224c-3.433-10.585-8.03-21.02-15.032-29.685A69.745,69.745,0,0,0,143.537,9.55a38.738,38.738,0,0,0-17.42-3.024c-5.958.439-11.553,2.8-16.953,5.172C98.82,16.235,87.417,21.83,75.895,18.321A20.143,20.143,0,0,1,64.235,9.611C62.1,6.148,67.259,3.365,69.558,6.5Z" transform="translate(-26.82 0)" fill="#333"/>
    <path id="Path_244" data-name="Path 244" d="M156.545,250.091c-.559,4.537-1.255,8.922-2.147,13.338-.453,2.268-.665,5-2.585,6.548s-4.854,1.164-7.244,1.179c-3.736,0-7.924.469-11.463-.937a9.771,9.771,0,0,1-5.126-4.34,23.262,23.262,0,0,1-2.027-5.9,50.372,50.372,0,0,1-1.1-7.561c-.167-2.374-.515-5.5.393-7.743a3.676,3.676,0,0,1,3.4-2.586,3.571,3.571,0,0,1,3.388,2.586,46.949,46.949,0,0,1,.257,7.289,34.042,34.042,0,0,0,.937,6.185c.242,1,.5,1.981.817,2.949a3.146,3.146,0,0,0,.983,1.693c-.635-.348.227.136.347.211.393.2.409.212,0,0l.651.212c.151,0,1.512.3.756.2a5.024,5.024,0,0,1,1.255.106c2.087.105,4.174,0,6.246,0a26.525,26.525,0,0,1,3.8,0h.378c-1.754,2-2.435,2.449-2.041,1.331a11.017,11.017,0,0,1,.484-1.846c1.164-4.536,2.132-9.225,2.918-13.912A3.4,3.4,0,0,1,156.5,250Z" transform="translate(-46.724 -46.128)" fill="#333"/>
    <path id="Path_245" data-name="Path 245" d="M148.763,273.795c3.024,13.973,5.64,28.022,8.242,42.07a24.868,24.868,0,0,1,.378,10.707,24.453,24.453,0,0,1-4.28,8.287,128.6,128.6,0,0,1-13.02,15.2,3.841,3.841,0,0,1-5.369,0,100.664,100.664,0,0,1-11.825-16.272,24.182,24.182,0,0,1-3.463-8.5A27.222,27.222,0,0,1,120.65,314.7q5.248-21.05,10.465-42.1c1.179-4.718,8.469-2.722,7.289,2.012l-9.724,39.167a42.266,42.266,0,0,0-1.89,9.073c0,2.616,1.376,4.87,2.646,7.047A90.163,90.163,0,0,0,140.1,344.627h-5.368a117.084,117.084,0,0,0,11.856-13.609,17.326,17.326,0,0,0,3.644-7.108c.469-2.919-.529-6.124-1.059-8.983-2.434-13.1-4.824-26.192-6.971-39.318a3.508,3.508,0,0,1,2.39-4.2,3.433,3.433,0,0,1,4.189,2.39Z" transform="translate(-43.675 -51.427)" fill="#333"/>
    <path id="Path_246" data-name="Path 246" d="M39.558,311.005l.129,0a3.537,3.537,0,0,0,3.1-2.1L65.01,258.927a3.589,3.589,0,0,0,.364-.066l10.512-2.441a3.535,3.535,0,0,0,2.674-4.1l-3.366-17.845a3.535,3.535,0,0,0-6.7-.781L39.267,299.422,6.655,238.378a3.535,3.535,0,0,0-6.236,3.333L36.44,309.135a3.535,3.535,0,0,0,3.117,1.87m31.426-60.7-2.384.554,1.747-3.93Z" transform="translate(132.092 -44.128)" fill="#333"/>
    <path id="Path_247" data-name="Path 247" d="M22.323,255.56a3.535,3.535,0,0,0,3.531-3.4c.2-5.355.081-14.82-3.025-18.046a4.886,4.886,0,0,0-3.532-1.548,3.536,3.536,0,0,0-1.458,6.757c.707,1.876,1.143,7.4.949,12.571a3.536,3.536,0,0,0,3.4,3.665l.135,0m-3.03-15.925h0Z" transform="translate(172.039 -44.313)" fill="#333"/>
  </g>
</svg>
